<mxfile host="65bd71144e">
    <diagram id="CWQGIFhCgSVLKnDVhXjq" name="Page-1">
        <mxGraphModel dx="878" dy="418" grid="1" gridSize="10" guides="1" tooltips="1" connect="1" arrows="1" fold="1" page="1" pageScale="1" pageWidth="1169" pageHeight="827" math="0" shadow="0">
            <root>
                <mxCell id="0"/>
                <mxCell id="1" parent="0"/>
                <mxCell id="2" value="" style="rounded=1;whiteSpace=wrap;html=1;fillColor=none;strokeColor=#000000;" parent="1" vertex="1">
                    <mxGeometry x="20" y="30" width="480" height="190" as="geometry"/>
                </mxCell>
                <mxCell id="3" value="" style="endArrow=classic;html=1;startArrow=none;startFill=0;endFill=1;strokeWidth=2;fontColor=#000000;strokeColor=#000000;" parent="1" edge="1">
                    <mxGeometry width="50" height="50" relative="1" as="geometry">
                        <mxPoint x="49.999999999999886" y="180" as="sourcePoint"/>
                        <mxPoint x="450" y="180" as="targetPoint"/>
                    </mxGeometry>
                </mxCell>
                <mxCell id="4" value="160" style="edgeLabel;html=1;align=center;verticalAlign=middle;resizable=0;points=[];fontColor=#000000;fontSize=20;labelBackgroundColor=none;" parent="3" vertex="1" connectable="0">
                    <mxGeometry x="-0.5355" y="1" relative="1" as="geometry">
                        <mxPoint x="98" y="21" as="offset"/>
                    </mxGeometry>
                </mxCell>
                <mxCell id="5" value="320pixeles" style="edgeLabel;html=1;align=center;verticalAlign=middle;resizable=0;points=[];fontColor=#000000;fontSize=20;labelBackgroundColor=none;" parent="3" vertex="1" connectable="0">
                    <mxGeometry x="0.8955" y="3" relative="1" as="geometry">
                        <mxPoint y="23" as="offset"/>
                    </mxGeometry>
                </mxCell>
                <mxCell id="6" value="" style="endArrow=none;html=1;fillColor=#008a00;strokeColor=#005700;strokeWidth=4;" parent="1" edge="1">
                    <mxGeometry width="50" height="50" relative="1" as="geometry">
                        <mxPoint x="49.999999999999886" y="180" as="sourcePoint"/>
                        <mxPoint x="245" y="80" as="targetPoint"/>
                    </mxGeometry>
                </mxCell>
                <mxCell id="7" value="" style="endArrow=none;html=1;fillColor=#a20025;strokeColor=#6F0000;strokeWidth=4;" parent="1" edge="1">
                    <mxGeometry width="50" height="50" relative="1" as="geometry">
                        <mxPoint x="240" y="180" as="sourcePoint"/>
                        <mxPoint x="430" y="80" as="targetPoint"/>
                    </mxGeometry>
                </mxCell>
                <mxCell id="8" value="" style="endArrow=none;html=1;fillColor=#a20025;strokeColor=#6F0000;strokeWidth=4;" parent="1" edge="1">
                    <mxGeometry width="50" height="50" relative="1" as="geometry">
                        <mxPoint x="430" y="180" as="sourcePoint"/>
                        <mxPoint x="430" y="80" as="targetPoint"/>
                    </mxGeometry>
                </mxCell>
                <mxCell id="9" value="" style="endArrow=classic;html=1;startArrow=none;startFill=0;endFill=1;strokeWidth=2;fontColor=#000000;strokeColor=#000000;" parent="1" edge="1">
                    <mxGeometry width="50" height="50" relative="1" as="geometry">
                        <mxPoint x="49.999999999999886" y="180" as="sourcePoint"/>
                        <mxPoint x="49.999999999999886" y="50" as="targetPoint"/>
                    </mxGeometry>
                </mxCell>
                <mxCell id="10" value="" style="endArrow=none;html=1;fontColor=#33FF33;strokeWidth=4;fillColor=#6a00ff;strokeColor=#3700CC;" parent="1" edge="1">
                    <mxGeometry width="50" height="50" relative="1" as="geometry">
                        <mxPoint x="49.999999999999886" y="80" as="sourcePoint"/>
                        <mxPoint x="240" y="180" as="targetPoint"/>
                    </mxGeometry>
                </mxCell>
                <mxCell id="11" value="CENTRO" style="text;html=1;align=center;verticalAlign=middle;resizable=0;points=[];autosize=1;strokeColor=none;fillColor=none;fontColor=#33FF33;fontSize=20;" parent="1" vertex="1">
                    <mxGeometry x="190" y="110" width="100" height="30" as="geometry"/>
                </mxCell>
                <mxCell id="12" value="DERECHA" style="text;html=1;align=center;verticalAlign=middle;resizable=0;points=[];autosize=1;fontColor=#0000FF;fontSize=20;" parent="1" vertex="1">
                    <mxGeometry x="80" y="70" width="110" height="30" as="geometry"/>
                </mxCell>
                <mxCell id="13" value="" style="endArrow=none;html=1;fillColor=#008a00;strokeColor=#005700;strokeWidth=4;" parent="1" edge="1">
                    <mxGeometry width="50" height="50" relative="1" as="geometry">
                        <mxPoint x="240" y="80" as="sourcePoint"/>
                        <mxPoint x="430" y="180" as="targetPoint"/>
                    </mxGeometry>
                </mxCell>
                <mxCell id="14" value="IZQUIERDA" style="text;html=1;align=center;verticalAlign=middle;resizable=0;points=[];autosize=1;fontColor=#660000;fontSize=20;" parent="1" vertex="1">
                    <mxGeometry x="280" y="70" width="120" height="30" as="geometry"/>
                </mxCell>
                <mxCell id="15" value="0" style="edgeLabel;html=1;align=center;verticalAlign=middle;resizable=0;points=[];fontColor=#000000;fontSize=20;labelBackgroundColor=none;" parent="1" vertex="1" connectable="0">
                    <mxGeometry x="60" y="199.9999999999999" as="geometry">
                        <mxPoint x="-6" y="-4" as="offset"/>
                    </mxGeometry>
                </mxCell>
                <mxCell id="16" value="" style="endArrow=none;html=1;fontColor=#33FF33;strokeWidth=4;fillColor=#6a00ff;strokeColor=#3700CC;" parent="1" edge="1">
                    <mxGeometry width="50" height="50" relative="1" as="geometry">
                        <mxPoint x="49.999999999999886" y="80" as="sourcePoint"/>
                        <mxPoint x="49.999999999999886" y="180" as="targetPoint"/>
                    </mxGeometry>
                </mxCell>
                <mxCell id="17" value="" style="rounded=1;whiteSpace=wrap;html=1;fillColor=none;strokeColor=#000000;" parent="1" vertex="1">
                    <mxGeometry x="520" y="30" width="480" height="190" as="geometry"/>
                </mxCell>
                <mxCell id="18" value="" style="endArrow=classic;html=1;startArrow=none;startFill=0;endFill=1;strokeWidth=2;fontColor=#000000;strokeColor=#000000;" parent="1" edge="1">
                    <mxGeometry width="50" height="50" relative="1" as="geometry">
                        <mxPoint x="550" y="180" as="sourcePoint"/>
                        <mxPoint x="950" y="180" as="targetPoint"/>
                    </mxGeometry>
                </mxCell>
                <mxCell id="19" value="90" style="edgeLabel;html=1;align=center;verticalAlign=middle;resizable=0;points=[];fontColor=#000000;fontSize=20;labelBackgroundColor=none;" parent="18" vertex="1" connectable="0">
                    <mxGeometry x="-0.5355" y="1" relative="1" as="geometry">
                        <mxPoint x="27" y="21" as="offset"/>
                    </mxGeometry>
                </mxCell>
                <mxCell id="20" value="500cm" style="edgeLabel;html=1;align=center;verticalAlign=middle;resizable=0;points=[];fontColor=#000000;fontSize=20;labelBackgroundColor=none;" parent="18" vertex="1" connectable="0">
                    <mxGeometry x="0.8955" y="3" relative="1" as="geometry">
                        <mxPoint y="23" as="offset"/>
                    </mxGeometry>
                </mxCell>
                <mxCell id="21" value="" style="endArrow=none;html=1;fillColor=#008a00;strokeColor=#005700;strokeWidth=4;" parent="1" edge="1">
                    <mxGeometry width="50" height="50" relative="1" as="geometry">
                        <mxPoint x="550" y="180" as="sourcePoint"/>
                        <mxPoint x="670" y="80" as="targetPoint"/>
                    </mxGeometry>
                </mxCell>
                <mxCell id="22" value="" style="endArrow=none;html=1;fillColor=#008a00;strokeColor=#005700;strokeWidth=4;" parent="1" edge="1">
                    <mxGeometry width="50" height="50" relative="1" as="geometry">
                        <mxPoint x="670" y="80" as="sourcePoint"/>
                        <mxPoint x="930" y="80" as="targetPoint"/>
                    </mxGeometry>
                </mxCell>
                <mxCell id="23" value="" style="endArrow=none;html=1;fillColor=#008a00;strokeColor=#005700;strokeWidth=4;" parent="1" edge="1">
                    <mxGeometry width="50" height="50" relative="1" as="geometry">
                        <mxPoint x="930" y="180" as="sourcePoint"/>
                        <mxPoint x="930" y="80" as="targetPoint"/>
                    </mxGeometry>
                </mxCell>
                <mxCell id="24" value="" style="endArrow=classic;html=1;startArrow=none;startFill=0;endFill=1;strokeWidth=2;fontColor=#000000;strokeColor=#000000;" parent="1" edge="1">
                    <mxGeometry width="50" height="50" relative="1" as="geometry">
                        <mxPoint x="550" y="180" as="sourcePoint"/>
                        <mxPoint x="550" y="50" as="targetPoint"/>
                    </mxGeometry>
                </mxCell>
                <mxCell id="25" value="" style="endArrow=none;html=1;fontColor=#33FF33;strokeWidth=4;fillColor=#6a00ff;strokeColor=#3700CC;" parent="1" edge="1">
                    <mxGeometry width="50" height="50" relative="1" as="geometry">
                        <mxPoint x="550" y="80" as="sourcePoint"/>
                        <mxPoint x="670" y="180" as="targetPoint"/>
                    </mxGeometry>
                </mxCell>
                <mxCell id="26" value="LEJOS" style="text;html=1;align=center;verticalAlign=middle;resizable=0;points=[];autosize=1;strokeColor=none;fillColor=none;fontColor=#33FF33;fontSize=20;" parent="1" vertex="1">
                    <mxGeometry x="705" y="110" width="80" height="30" as="geometry"/>
                </mxCell>
                <mxCell id="27" value="CERCA" style="text;html=1;align=center;verticalAlign=middle;resizable=0;points=[];autosize=1;fontColor=#0000FF;fontSize=20;" parent="1" vertex="1">
                    <mxGeometry x="570" y="70" width="90" height="30" as="geometry"/>
                </mxCell>
                <mxCell id="29" value="" style="rounded=1;whiteSpace=wrap;html=1;fillColor=none;strokeColor=#000000;" parent="1" vertex="1">
                    <mxGeometry x="20" y="230" width="480" height="190" as="geometry"/>
                </mxCell>
                <mxCell id="30" value="" style="endArrow=classic;html=1;startArrow=none;startFill=0;endFill=1;strokeWidth=2;fontColor=#000000;strokeColor=#000000;" parent="1" edge="1">
                    <mxGeometry width="50" height="50" relative="1" as="geometry">
                        <mxPoint x="50" y="380" as="sourcePoint"/>
                        <mxPoint x="450" y="380" as="targetPoint"/>
                    </mxGeometry>
                </mxCell>
                <mxCell id="31" value="0" style="edgeLabel;html=1;align=center;verticalAlign=middle;resizable=0;points=[];fontColor=#000000;fontSize=20;labelBackgroundColor=none;" parent="30" vertex="1" connectable="0">
                    <mxGeometry x="-0.5355" y="1" relative="1" as="geometry">
                        <mxPoint x="98" y="21" as="offset"/>
                    </mxGeometry>
                </mxCell>
                <mxCell id="32" value="10 Δ PWM" style="edgeLabel;align=center;verticalAlign=middle;resizable=0;points=[];fontColor=#000000;fontSize=20;labelBackgroundColor=none;" parent="30" vertex="1" connectable="0">
                    <mxGeometry x="0.8955" y="3" relative="1" as="geometry">
                        <mxPoint y="23" as="offset"/>
                    </mxGeometry>
                </mxCell>
                <mxCell id="33" value="" style="endArrow=none;html=1;fillColor=#008a00;strokeColor=#005700;strokeWidth=4;" parent="1" edge="1">
                    <mxGeometry width="50" height="50" relative="1" as="geometry">
                        <mxPoint x="50" y="380" as="sourcePoint"/>
                        <mxPoint x="240" y="280" as="targetPoint"/>
                    </mxGeometry>
                </mxCell>
                <mxCell id="34" value="" style="endArrow=none;html=1;fillColor=#a20025;strokeColor=#6F0000;strokeWidth=4;" parent="1" edge="1">
                    <mxGeometry width="50" height="50" relative="1" as="geometry">
                        <mxPoint x="240" y="380" as="sourcePoint"/>
                        <mxPoint x="430" y="280" as="targetPoint"/>
                    </mxGeometry>
                </mxCell>
                <mxCell id="35" value="" style="endArrow=none;html=1;fillColor=#a20025;strokeColor=#6F0000;strokeWidth=4;" parent="1" edge="1">
                    <mxGeometry width="50" height="50" relative="1" as="geometry">
                        <mxPoint x="430" y="380" as="sourcePoint"/>
                        <mxPoint x="430" y="280" as="targetPoint"/>
                    </mxGeometry>
                </mxCell>
                <mxCell id="36" value="" style="endArrow=classic;html=1;startArrow=none;startFill=0;endFill=1;strokeWidth=2;fontColor=#000000;strokeColor=#000000;" parent="1" edge="1">
                    <mxGeometry width="50" height="50" relative="1" as="geometry">
                        <mxPoint x="239.57" y="380" as="sourcePoint"/>
                        <mxPoint x="239.57" y="250" as="targetPoint"/>
                    </mxGeometry>
                </mxCell>
                <mxCell id="37" value="" style="endArrow=none;html=1;fontColor=#33FF33;strokeWidth=4;fillColor=#6a00ff;strokeColor=#3700CC;" parent="1" edge="1">
                    <mxGeometry width="50" height="50" relative="1" as="geometry">
                        <mxPoint x="50" y="280" as="sourcePoint"/>
                        <mxPoint x="240" y="380" as="targetPoint"/>
                    </mxGeometry>
                </mxCell>
                <mxCell id="38" value="MANTENER" style="text;html=1;align=center;verticalAlign=middle;resizable=0;points=[];autosize=1;strokeColor=none;fillColor=none;fontColor=#33FF33;fontSize=20;" parent="1" vertex="1">
                    <mxGeometry x="175" y="310" width="130" height="30" as="geometry"/>
                </mxCell>
                <mxCell id="39" value="REDUCIR" style="text;html=1;align=center;verticalAlign=middle;resizable=0;points=[];autosize=1;fontColor=#0000FF;fontSize=20;" parent="1" vertex="1">
                    <mxGeometry x="90" y="270" width="110" height="30" as="geometry"/>
                </mxCell>
                <mxCell id="40" value="" style="endArrow=none;html=1;fillColor=#008a00;strokeColor=#005700;strokeWidth=4;" parent="1" edge="1">
                    <mxGeometry width="50" height="50" relative="1" as="geometry">
                        <mxPoint x="240" y="280" as="sourcePoint"/>
                        <mxPoint x="430" y="380" as="targetPoint"/>
                    </mxGeometry>
                </mxCell>
                <mxCell id="41" value="AUMENTAR" style="text;html=1;align=center;verticalAlign=middle;resizable=0;points=[];autosize=1;fontColor=#660000;fontSize=20;" parent="1" vertex="1">
                    <mxGeometry x="280" y="270" width="130" height="30" as="geometry"/>
                </mxCell>
                <mxCell id="42" value="-10" style="edgeLabel;html=1;align=center;verticalAlign=middle;resizable=0;points=[];fontColor=#000000;fontSize=20;labelBackgroundColor=none;" parent="1" vertex="1" connectable="0">
                    <mxGeometry x="60" y="399.9999999999999" as="geometry">
                        <mxPoint x="-6" y="-4" as="offset"/>
                    </mxGeometry>
                </mxCell>
                <mxCell id="43" value="" style="endArrow=none;html=1;fontColor=#33FF33;strokeWidth=4;fillColor=#6a00ff;strokeColor=#3700CC;" parent="1" edge="1">
                    <mxGeometry width="50" height="50" relative="1" as="geometry">
                        <mxPoint x="50" y="280" as="sourcePoint"/>
                        <mxPoint x="50" y="380" as="targetPoint"/>
                    </mxGeometry>
                </mxCell>
                <mxCell id="56" value="" style="rounded=1;whiteSpace=wrap;html=1;fillColor=none;strokeColor=#000000;" parent="1" vertex="1">
                    <mxGeometry x="520" y="230" width="480" height="190" as="geometry"/>
                </mxCell>
                <mxCell id="57" value="" style="endArrow=classic;html=1;startArrow=none;startFill=0;endFill=1;strokeWidth=2;fontColor=#000000;strokeColor=#000000;" parent="1" edge="1">
                    <mxGeometry width="50" height="50" relative="1" as="geometry">
                        <mxPoint x="550" y="379.9999999999998" as="sourcePoint"/>
                        <mxPoint x="949.9999999999998" y="379.9999999999998" as="targetPoint"/>
                    </mxGeometry>
                </mxCell>
                <mxCell id="58" value="0" style="edgeLabel;html=1;align=center;verticalAlign=middle;resizable=0;points=[];fontColor=#000000;fontSize=20;labelBackgroundColor=none;" parent="57" vertex="1" connectable="0">
                    <mxGeometry x="-0.5355" y="1" relative="1" as="geometry">
                        <mxPoint x="98" y="21" as="offset"/>
                    </mxGeometry>
                </mxCell>
                <mxCell id="59" value="15 Δ PWM" style="edgeLabel;align=center;verticalAlign=middle;resizable=0;points=[];fontColor=#000000;fontSize=20;labelBackgroundColor=none;" parent="57" vertex="1" connectable="0">
                    <mxGeometry x="0.8955" y="3" relative="1" as="geometry">
                        <mxPoint y="23" as="offset"/>
                    </mxGeometry>
                </mxCell>
                <mxCell id="60" value="" style="endArrow=none;html=1;fillColor=#008a00;strokeColor=#005700;strokeWidth=4;" parent="1" edge="1">
                    <mxGeometry width="50" height="50" relative="1" as="geometry">
                        <mxPoint x="550" y="379.9999999999998" as="sourcePoint"/>
                        <mxPoint x="740" y="279.9999999999998" as="targetPoint"/>
                    </mxGeometry>
                </mxCell>
                <mxCell id="61" value="" style="endArrow=none;html=1;fillColor=#a20025;strokeColor=#6F0000;strokeWidth=4;" parent="1" edge="1">
                    <mxGeometry width="50" height="50" relative="1" as="geometry">
                        <mxPoint x="740" y="379.9999999999998" as="sourcePoint"/>
                        <mxPoint x="929.9999999999998" y="279.9999999999998" as="targetPoint"/>
                    </mxGeometry>
                </mxCell>
                <mxCell id="62" value="" style="endArrow=none;html=1;fillColor=#a20025;strokeColor=#6F0000;strokeWidth=4;" parent="1" edge="1">
                    <mxGeometry width="50" height="50" relative="1" as="geometry">
                        <mxPoint x="929.9999999999998" y="379.9999999999998" as="sourcePoint"/>
                        <mxPoint x="929.9999999999998" y="279.9999999999998" as="targetPoint"/>
                    </mxGeometry>
                </mxCell>
                <mxCell id="63" value="" style="endArrow=classic;html=1;startArrow=none;startFill=0;endFill=1;strokeWidth=2;fontColor=#000000;strokeColor=#000000;" parent="1" edge="1">
                    <mxGeometry width="50" height="50" relative="1" as="geometry">
                        <mxPoint x="739.5699999999999" y="379.9999999999998" as="sourcePoint"/>
                        <mxPoint x="739.5699999999999" y="249.99999999999977" as="targetPoint"/>
                    </mxGeometry>
                </mxCell>
                <mxCell id="64" value="" style="endArrow=none;html=1;fontColor=#33FF33;strokeWidth=4;fillColor=#6a00ff;strokeColor=#3700CC;" parent="1" edge="1">
                    <mxGeometry width="50" height="50" relative="1" as="geometry">
                        <mxPoint x="550" y="279.9999999999998" as="sourcePoint"/>
                        <mxPoint x="740" y="379.9999999999998" as="targetPoint"/>
                    </mxGeometry>
                </mxCell>
                <mxCell id="65" value="CENTRO" style="text;html=1;align=center;verticalAlign=middle;resizable=0;points=[];autosize=1;strokeColor=none;fillColor=none;fontColor=#33FF33;fontSize=20;" parent="1" vertex="1">
                    <mxGeometry x="690" y="310" width="100" height="30" as="geometry"/>
                </mxCell>
                <mxCell id="66" value="IZQUIERDA" style="text;html=1;align=center;verticalAlign=middle;resizable=0;points=[];autosize=1;fontColor=#0000FF;fontSize=20;" parent="1" vertex="1">
                    <mxGeometry x="585" y="270" width="120" height="30" as="geometry"/>
                </mxCell>
                <mxCell id="67" value="" style="endArrow=none;html=1;fillColor=#008a00;strokeColor=#005700;strokeWidth=4;" parent="1" edge="1">
                    <mxGeometry width="50" height="50" relative="1" as="geometry">
                        <mxPoint x="740" y="279.9999999999998" as="sourcePoint"/>
                        <mxPoint x="929.9999999999998" y="379.9999999999998" as="targetPoint"/>
                    </mxGeometry>
                </mxCell>
                <mxCell id="68" value="DERECHA" style="text;html=1;align=center;verticalAlign=middle;resizable=0;points=[];autosize=1;fontColor=#660000;fontSize=20;" parent="1" vertex="1">
                    <mxGeometry x="785" y="270" width="110" height="30" as="geometry"/>
                </mxCell>
                <mxCell id="69" value="-15" style="edgeLabel;html=1;align=center;verticalAlign=middle;resizable=0;points=[];fontColor=#000000;fontSize=20;labelBackgroundColor=none;" parent="1" vertex="1" connectable="0">
                    <mxGeometry x="560" y="399.9999999999999" as="geometry">
                        <mxPoint x="5" y="3" as="offset"/>
                    </mxGeometry>
                </mxCell>
                <mxCell id="70" value="" style="endArrow=none;html=1;fontColor=#33FF33;strokeWidth=4;fillColor=#6a00ff;strokeColor=#3700CC;" parent="1" edge="1">
                    <mxGeometry width="50" height="50" relative="1" as="geometry">
                        <mxPoint x="550" y="279.9999999999998" as="sourcePoint"/>
                        <mxPoint x="550" y="379.9999999999998" as="targetPoint"/>
                    </mxGeometry>
                </mxCell>
                <mxCell id="71" value="&lt;font style=&quot;font-size: 20px&quot;&gt;variacion de velocidad&lt;/font&gt;" style="text;strokeColor=none;fillColor=none;html=1;fontSize=24;fontStyle=1;verticalAlign=middle;align=center;fontColor=#000000;" parent="1" vertex="1">
                    <mxGeometry x="260" y="230" width="230" height="40" as="geometry"/>
                </mxCell>
                <mxCell id="72" value="&lt;font style=&quot;font-size: 20px&quot;&gt;guiñada&lt;/font&gt;" style="text;strokeColor=none;fillColor=none;html=1;fontSize=24;fontStyle=1;verticalAlign=middle;align=center;fontColor=#000000;" parent="1" vertex="1">
                    <mxGeometry x="900" y="230" width="95" height="40" as="geometry"/>
                </mxCell>
                <mxCell id="73" value="&lt;font style=&quot;font-size: 20px&quot;&gt;distancia sensada&lt;/font&gt;" style="text;strokeColor=none;fillColor=none;html=1;fontSize=24;fontStyle=1;verticalAlign=middle;align=center;fontColor=#000000;" parent="1" vertex="1">
                    <mxGeometry x="800" y="30" width="195" height="40" as="geometry"/>
                </mxCell>
                <mxCell id="74" value="&lt;font style=&quot;font-size: 20px&quot;&gt;centro de masa&lt;/font&gt;" style="text;strokeColor=none;fillColor=none;html=1;fontSize=24;fontStyle=1;verticalAlign=middle;align=center;fontColor=#000000;" parent="1" vertex="1">
                    <mxGeometry x="330" y="30" width="160" height="40" as="geometry"/>
                </mxCell>
                <mxCell id="75" value="0" style="edgeLabel;html=1;align=center;verticalAlign=middle;resizable=0;points=[];fontColor=#000000;fontSize=20;labelBackgroundColor=none;" parent="1" vertex="1" connectable="0">
                    <mxGeometry x="680.1034482758621" y="209.9999999999999" as="geometry">
                        <mxPoint x="-122" y="-12" as="offset"/>
                    </mxGeometry>
                </mxCell>
                <mxCell id="76" value="1" style="edgeLabel;html=1;align=center;verticalAlign=middle;resizable=0;points=[];fontColor=#000000;fontSize=20;labelBackgroundColor=none;" vertex="1" connectable="0" parent="1">
                    <mxGeometry x="40" y="84.99999999999989" as="geometry">
                        <mxPoint x="-5" y="-4" as="offset"/>
                    </mxGeometry>
                </mxCell>
                <mxCell id="77" value="1" style="edgeLabel;html=1;align=center;verticalAlign=middle;resizable=0;points=[];fontColor=#000000;fontSize=20;labelBackgroundColor=none;" vertex="1" connectable="0" parent="1">
                    <mxGeometry x="50" y="94.99999999999989" as="geometry">
                        <mxPoint x="489" y="-17" as="offset"/>
                    </mxGeometry>
                </mxCell>
                <mxCell id="78" value="1" style="edgeLabel;html=1;align=center;verticalAlign=middle;resizable=0;points=[];fontColor=#000000;fontSize=20;labelBackgroundColor=none;" vertex="1" connectable="0" parent="1">
                    <mxGeometry x="70" y="99.99999999999989" as="geometry">
                        <mxPoint x="464" y="183" as="offset"/>
                    </mxGeometry>
                </mxCell>
                <mxCell id="80" value="&lt;font color=&quot;#000000&quot; style=&quot;font-size: 20px&quot;&gt;1&lt;/font&gt;" style="text;html=1;strokeColor=none;fillColor=none;align=center;verticalAlign=middle;whiteSpace=wrap;rounded=0;strokeWidth=20;" vertex="1" parent="1">
                    <mxGeometry x="10" y="270" width="60" height="30" as="geometry"/>
                </mxCell>
            </root>
        </mxGraphModel>
    </diagram>
</mxfile>